
<svg xmlns="http://www.w3.org/2000/svg" style="display: none;">
  <!-- SVG Symbol Definitions -->
  <symbol id="icon1" viewBox="0 0 118 118">
    <path d="M7.546 0C3.399 0 0 3.399 0 7.546V124.454C0 128.607 3.399 132 7.535 132H124.449C128.596 132 131.989 128.607 131.989 124.454V7.546C131.986 5.54747 131.192 3.63147 129.78 2.21726C128.367 0.803056 126.453 0.00581603 124.454 0L7.546 0ZM73.326 24.6675H73.4965C74.7422 24.6675 75.9369 25.1624 76.8178 26.0432C77.6986 26.9241 78.1935 28.1188 78.1935 29.3645C78.1935 30.6102 77.6986 31.8049 76.8178 32.6858C75.9369 33.5666 74.7422 34.0615 73.4965 34.0615C72.2508 34.0615 71.0561 33.5666 70.1752 32.6858C69.2944 31.8049 68.7995 30.6102 68.7995 29.3645C68.7986 28.1487 69.2693 26.9799 70.1124 26.1039C70.9556 25.228 72.111 24.7131 73.326 24.6675ZM48.862 25.1845H48.9005C50.0091 25.1845 51.0723 25.6249 51.8562 26.4088C52.6401 27.1927 53.0805 28.2559 53.0805 29.3645C53.079 30.4722 52.638 31.5339 51.8543 32.3167C51.0705 33.0994 50.0082 33.539 48.9005 33.539C47.7928 33.5375 46.7311 33.0965 45.9483 32.3128C45.1656 31.529 44.726 30.4667 44.726 29.359C44.7259 28.258 45.1603 27.2014 45.9347 26.4187C46.7091 25.6361 47.761 25.1961 48.862 25.1845ZM24.3155 25.7015C25.2846 25.703 26.2135 26.0889 26.8982 26.7747C27.5829 27.4605 27.9675 28.3899 27.9675 29.359C27.966 30.3271 27.5808 31.2552 26.8962 31.9397C26.2117 32.6243 25.2836 33.0095 24.3155 33.011C23.3464 33.011 22.417 32.6264 21.7312 31.9417C21.0454 31.257 20.6595 30.3281 20.658 29.359C20.658 28.389 21.0433 27.4587 21.7293 26.7728C22.4152 26.0868 23.3455 25.7015 24.3155 25.7015ZM85.7835 36.432C87.1693 36.432 88.4983 36.9825 89.4781 37.9624C90.458 38.9422 91.0085 40.2712 91.0085 41.657C91.0041 43.0399 90.4517 44.3647 89.4723 45.341C88.4929 46.3173 87.1664 46.8655 85.7835 46.8655C84.4006 46.864 83.0747 46.3144 82.0963 45.3371C81.1179 44.3597 80.5669 43.0344 80.564 41.6515C80.5655 40.2667 81.1166 38.9391 82.0963 37.9604C83.076 36.9817 84.3987 36.432 85.7835 36.432ZM61.028 36.949H61.204C62.4502 36.949 63.6455 37.4437 64.5272 38.3244C65.409 39.2051 65.905 40.3998 65.9065 41.646C65.9065 42.8932 65.4111 44.0893 64.5292 44.9712C63.6473 45.8531 62.4512 46.3485 61.204 46.3485C59.9568 46.3485 58.7607 45.8531 57.8788 44.9712C56.9969 44.0893 56.5015 42.8932 56.5015 41.646C56.5021 40.4297 56.9739 39.2609 57.8179 38.3851C58.662 37.5092 59.8125 36.9945 61.028 36.949ZM36.575 37.4715H36.6135C37.7221 37.4715 38.7853 37.9119 39.5692 38.6958C40.3531 39.4797 40.7935 40.5429 40.7935 41.6515C40.7935 42.7601 40.3531 43.8233 39.5692 44.6072C38.7853 45.3911 37.7221 45.8315 36.6135 45.8315C35.5058 45.83 34.4441 45.389 33.6613 44.6053C32.8786 43.8215 32.439 42.7592 32.439 41.6515C32.4389 40.5505 32.8733 39.4939 33.6477 38.7112C34.4221 37.9286 35.474 37.4831 36.575 37.4715ZM97.9935 48.202H98.0925C99.6144 48.2035 101.074 48.8091 102.149 49.8857C103.225 50.9624 103.829 52.4221 103.829 53.944C103.829 55.4659 103.225 56.9256 102.149 58.0023C101.074 59.0789 99.6144 59.6845 98.0925 59.686C96.5696 59.686 95.1091 59.081 94.0323 58.0042C92.9555 56.9274 92.3505 55.4669 92.3505 53.944C92.3517 52.4391 92.9437 50.9948 93.9991 49.9219C95.0544 48.8491 96.4888 48.2334 97.9935 48.2075M73.4965 48.73C74.8823 48.73 76.2113 49.2805 77.1911 50.2604C78.171 51.2402 78.7215 52.5692 78.7215 53.955C78.7186 55.3389 78.1668 56.665 77.1872 57.6425C76.2077 58.62 74.8804 59.169 73.4965 59.169C72.1136 59.1675 70.7877 58.6179 69.8093 57.6406C68.8309 56.6632 68.2799 55.3379 68.277 53.955C68.277 52.5692 68.8275 51.2402 69.8074 50.2604C70.7872 49.2805 72.1162 48.73 73.502 48.73M48.917 49.2525C50.1627 49.2525 51.3574 49.7474 52.2383 50.6282C53.1191 51.5091 53.614 52.7038 53.614 53.9495C53.614 54.5668 53.4923 55.178 53.2559 55.7482C53.0195 56.3185 52.6731 56.8365 52.2363 57.2727C51.7996 57.709 51.2812 58.0548 50.7107 58.2905C50.1402 58.5263 49.5288 58.6472 48.9115 58.6465C47.6658 58.6465 46.4711 58.1516 45.5902 57.2708C44.7094 56.3899 44.2145 55.1952 44.2145 53.9495C44.2145 52.7038 44.7094 51.5091 45.5902 50.6282C46.4711 49.7474 47.6658 49.2525 48.9115 49.2525M110.38 59.983C112.041 59.9845 113.633 60.6449 114.808 61.8194C115.982 62.9939 116.643 64.5865 116.644 66.2475C116.641 67.9075 115.98 69.4987 114.806 70.672C113.631 71.8453 112.04 72.505 110.38 72.5065C108.719 72.505 107.128 71.8453 105.953 70.672C104.779 69.4987 104.118 67.9075 104.115 66.2475C104.116 64.5865 104.777 62.9939 105.951 61.8194C107.126 60.6449 108.718 59.9845 110.38 59.983ZM85.7945 60.5055C87.3164 60.507 88.7755 61.1126 89.8511 62.1892C90.9268 63.2659 91.531 64.7256 91.531 66.2475C91.5295 67.7685 90.9247 69.2267 89.8492 70.3022C88.7737 71.3777 87.3155 71.9825 85.7945 71.984C84.2726 71.984 82.8129 71.3798 81.7362 70.3042C80.6596 69.2285 80.054 67.7694 80.0525 66.2475C80.0525 65.4935 80.201 64.7468 80.4896 64.0501C80.7781 63.3535 81.2011 62.7205 81.7343 62.1873C82.2675 61.6541 82.9005 61.2311 83.5971 60.9426C84.2938 60.654 85.0404 60.5055 85.7945 60.5055ZM61.204 61.0225C62.5888 61.0225 63.917 61.5722 64.8967 62.5509C65.8764 63.5296 66.4275 64.8572 66.429 66.242C66.4275 67.6268 65.8764 68.9544 64.8967 69.9331C63.917 70.9118 62.5888 71.4615 61.204 71.4615C59.8192 71.4615 58.491 70.9118 57.5113 69.9331C56.5316 68.9544 55.9805 67.6268 55.979 66.242C55.9805 64.8572 56.5316 63.5296 57.5113 62.5509C58.491 61.5722 59.8192 61.0225 61.204 61.0225ZM98.087 72.2755C99.749 72.277 101.342 72.9382 102.517 74.1139C103.692 75.2896 104.351 76.8835 104.351 78.5455C104.347 80.2055 103.685 81.7961 102.509 82.9684C101.334 84.1407 99.7416 84.799 98.0815 84.799C96.4224 84.7961 94.8321 84.1357 93.6589 82.9626C92.4858 81.7894 91.8254 80.1991 91.8225 78.54C91.824 76.879 92.4844 75.2864 93.6589 74.1119C94.8334 72.9374 96.426 72.277 98.087 72.2755ZM73.3975 72.798H73.4965C75.0184 72.798 76.4781 73.4022 77.5548 74.4778C78.6314 75.5535 79.237 77.0126 79.2385 78.5345C79.2385 80.0574 78.6335 81.5179 77.5567 82.5947C76.4799 83.6715 75.0194 84.2765 73.4965 84.2765C71.9736 84.2765 70.5131 83.6715 69.4363 82.5947C68.3595 81.5179 67.7545 80.0574 67.7545 78.5345C67.7557 77.0296 68.3477 75.5853 69.4031 74.5124C70.4584 73.4396 71.8928 72.8239 73.3975 72.798ZM48.8675 74.36H48.906C50.0146 74.36 51.0778 74.8004 51.8617 75.5843C52.6456 76.3682 53.086 77.4314 53.086 78.54C53.086 79.6486 52.6456 80.7118 51.8617 81.4957C51.0778 82.2796 50.0146 82.72 48.906 82.72C47.7983 82.7185 46.7366 82.2775 45.9539 81.4938C45.1711 80.71 44.7315 79.6477 44.7315 78.54C44.7314 77.439 45.1658 76.3824 45.9402 75.5997C46.7146 74.8171 47.7665 74.3716 48.8675 74.36ZM85.6075 84.5735H85.789C87.45 84.5735 89.0431 85.2326 90.2187 86.406C91.3942 87.5795 92.0561 89.1715 92.059 90.8325C92.0575 92.4945 91.3963 94.0878 90.2206 95.2625C89.0449 96.4372 87.451 97.097 85.789 97.097C84.127 97.0955 82.5337 96.4343 81.359 95.2586C80.1843 94.0829 79.5245 92.489 79.5245 90.827C79.5281 89.1988 80.1648 87.6359 81.3001 86.4688C82.4353 85.3018 83.9801 84.6221 85.6075 84.5735ZM36.575 86.658H36.6135C37.7212 86.658 38.7835 87.0976 39.5673 87.8803C40.351 88.6631 40.792 89.7248 40.7935 90.8325C40.7935 91.3814 40.6854 91.925 40.4753 92.4321C40.2653 92.9393 39.9574 93.4001 39.5692 93.7882C39.1811 94.1764 38.7203 94.4842 38.2131 94.6943C37.706 94.9044 37.1624 95.0125 36.6135 95.0125C35.5058 95.011 34.4441 94.57 33.6613 93.7863C32.8786 93.0025 32.439 91.9401 32.439 90.8325C32.4389 89.7315 32.8733 88.6749 33.6477 87.8922C34.4221 87.1096 35.474 86.6696 36.575 86.658ZM61.16 86.6525H61.204C62.3117 86.6525 63.374 87.0921 64.1578 87.8748C64.9415 88.6576 65.3825 89.7193 65.384 90.827C65.384 91.3759 65.2759 91.9195 65.0658 92.4266C64.8558 92.9338 64.5479 93.3946 64.1597 93.7827C63.7716 94.1709 63.3108 94.4788 62.8036 94.6888C62.2965 94.8989 61.7529 95.007 61.204 95.007C60.6551 95.007 60.1115 94.8989 59.6044 94.6888C59.0972 94.4788 58.6364 94.1709 58.2483 93.7827C57.8601 93.3946 57.5522 92.9338 57.3422 92.4266C57.1321 91.9195 57.024 91.3759 57.024 90.827C57.024 89.725 57.4591 88.6676 58.2347 87.8848C59.0102 87.102 60.0636 86.6571 61.1655 86.647M24.2935 98.945H24.332C25.4406 98.945 26.5038 99.3854 27.2877 100.169C28.0716 100.953 28.512 102.016 28.512 103.125C28.5105 104.233 28.0695 105.294 27.2858 106.077C26.502 106.86 25.4397 107.3 24.332 107.3C23.2243 107.3 22.162 106.86 21.3782 106.077C20.5945 105.294 20.1535 104.233 20.152 103.125C20.152 102.023 20.5871 100.966 21.3627 100.183C22.1382 99.4 23.1916 98.9551 24.2935 98.945ZM48.8785 98.945H48.9115C50.0201 98.945 51.0833 99.3854 51.8672 100.169C52.6511 100.953 53.0915 102.016 53.0915 103.125C53.0915 103.674 52.9834 104.217 52.7733 104.725C52.5632 105.232 52.2554 105.693 51.8672 106.081C51.4791 106.469 51.0183 106.777 50.5111 106.987C50.004 107.197 49.4604 107.305 48.9115 107.305C47.8038 107.304 46.7421 106.863 45.9593 106.079C45.1766 105.295 44.737 104.233 44.737 103.125C44.7369 102.024 45.1713 100.967 45.9457 100.185C46.7201 99.4021 47.772 98.9566 48.873 98.945M73.4965 98.956C74.0457 98.9551 74.5898 99.0625 75.0975 99.272C75.6052 99.4815 76.0667 99.7891 76.4555 100.177C77.2364 100.96 77.6748 102.022 77.6748 103.128C77.6748 104.234 77.2364 105.295 76.4555 106.079C76.0673 106.467 75.6065 106.775 75.0992 106.985C74.592 107.195 74.0483 107.303 73.4992 107.303C72.9502 107.303 72.4065 107.195 71.8993 106.985C71.392 106.775 70.9312 106.467 70.543 106.079C69.7621 105.295 69.3237 104.234 69.3237 103.128C69.3237 102.022 69.7621 100.96 70.543 100.177C71.3269 99.3948 72.3891 98.9557 73.4965 98.956Z" fill="#E6ABAB"/>
  </symbol>
  <symbol id="icon2" viewBox="0 0 155 155">
    <path d="M48.0824 45.2083H106.795C110.147 45.2083 112.084 48.7604 110.147 51.3825L82.7055 87.336C80.6905 89.9581 82.6667 93.6329 86.0121 93.6329H110.709C111.348 93.6425 111.981 93.5013 112.555 93.2208C113.13 92.9403 113.63 92.5283 114.015 92.0183L141.295 55.6966C141.805 55.0236 142.08 54.2027 142.08 53.3587C142.08 52.5148 141.805 51.6939 141.295 51.0208L116.96 18.6194C116.576 18.1048 116.077 17.6869 115.503 17.3988C114.929 17.1107 114.296 16.9603 113.654 16.9596H41.3463C40.7068 16.954 40.0747 17.097 39.4998 17.3771C38.9249 17.6573 38.4229 18.0671 38.0332 18.5741L13.7047 51.0208C13.1955 51.6939 12.9199 52.5148 12.9199 53.3587C12.9199 54.2027 13.1955 55.0236 13.7047 55.6966L74.1934 136.406C74.5823 136.914 75.0829 137.325 75.6563 137.608C76.2297 137.891 76.8606 138.039 77.5001 138.039C78.1395 138.039 78.7704 137.891 79.3438 137.608C79.9173 137.325 80.4178 136.914 80.8067 136.406L93.1551 119.899C93.6658 119.225 93.9422 118.403 93.9422 117.558C93.9422 116.712 93.6658 115.89 93.1551 115.217L44.8209 51.3825C42.8382 48.7604 44.8209 45.2083 48.1211 45.2083H48.0824Z" fill="#5EBC53"/>
  </symbol>
 
  <symbol id="icon3" viewBox="0 0 159 155">
    <path d="M77 0C34.8233 0 0.641711 34.4703 0.654545 77C0.654545 119.53 34.8361 154 77 154C119.164 154 153.346 119.517 153.346 77C153.346 34.4703 119.164 0 77 0ZM86.0347 45.9433H93.2663V71.0582L94.986 69.8711C99.1549 66.7802 104.25 65.1965 109.436 65.3794L109.622 65.3987C115.551 65.7235 121.109 68.3878 125.076 72.8066C129.042 77.2254 131.093 83.0375 130.778 88.9671C129.392 111.682 98.2456 118.387 88.2677 97.9183C85.855 92.939 86.0347 94.8127 85.8615 69.0048L86.0347 45.9433ZM55.671 46.7968C60.6426 46.8195 65.4599 48.5248 69.3385 51.6349C73.9127 55.3133 76.8649 60.6362 77.5633 66.4642C78.2617 72.2921 76.6507 78.1619 73.0752 82.8168C69.4997 87.4718 64.2439 90.5419 58.4329 91.37C52.622 92.1981 46.7178 90.7183 41.9843 87.2474C41.471 86.9073 40.7651 86.5672 40.2518 86.2207C40.085 86.2207 40.0785 91.7198 40.0785 98.6049V110.989H32.8534V90.5199C32.8534 65.7452 32.8598 64.3656 35.2725 59.5403C36.7915 56.4872 38.9677 53.8084 41.6447 51.696C44.3218 49.5837 47.4333 48.0903 50.7559 47.3229C52.3857 46.9593 54.0241 46.7839 55.671 46.7968ZM55.2283 53.8743C51.4476 53.8515 47.7999 55.2687 45.0262 57.838C42.2526 60.4073 40.561 63.9361 40.295 67.7075C40.029 71.4789 41.2086 75.2102 43.5942 78.1434C45.9798 81.0765 49.3925 82.9916 53.139 83.4996C56.8855 84.0076 60.685 83.0704 63.7655 80.8785C66.846 78.6865 68.9766 75.404 69.7246 71.698C70.4725 67.9919 69.7816 64.14 67.7923 60.9249C65.803 57.7098 62.6644 55.3724 59.0141 54.3877C57.7813 54.0458 56.5077 53.8731 55.2283 53.8743ZM109.257 72.4634C105.501 72.2532 101.799 73.4373 98.8627 75.7886C95.9261 78.1398 93.9611 81.4926 93.3447 85.2036C92.7284 88.9146 93.504 92.7226 95.5228 95.8969C97.5416 99.0712 100.661 101.388 104.284 102.404C108.163 103.402 112.279 102.836 115.744 100.827C119.208 98.8173 121.744 95.5261 122.804 91.6634C123.864 87.8007 123.362 83.6762 121.407 80.1802C119.452 76.6841 116.201 74.0969 112.356 72.9767C111.358 72.6371 110.311 72.4636 109.257 72.4634Z" fill="#BEDDF3"/>

  </symbol>
  <symbol id="icon4" viewBox="0 0 159 155">
    <path d="M67.9774 0C66.7874 0 65.5974 0.0283333 64.4074 0.085L65.1667 14.518C67.0537 14.4047 68.9067 14.4443 70.7597 14.518L71.5134 0.085C70.3356 0.0283705 69.1566 2.89997e-05 67.9774 0ZM57.2674 0.838667C54.9271 1.21833 52.5867 1.71133 50.3541 2.312L54.1337 16.2917C55.9471 15.8043 57.7604 15.4247 59.6474 15.1243L57.2674 0.838667ZM78.5797 0.838667L76.3867 15.1187C78.2794 15.4247 80.1267 15.7987 81.9061 16.2917L85.5667 2.312C83.2629 1.70823 80.9312 1.21655 78.5797 0.838667ZM43.6277 4.505C41.4007 5.37767 39.2474 6.31833 37.1337 7.41767L43.7411 20.298C45.4146 19.4669 47.1033 18.7113 48.8071 18.0313L43.6277 4.505ZM92.4064 4.54467L87.1931 18.0313C88.9762 18.7076 90.7026 19.4763 92.3724 20.3377L98.8664 7.41767C96.7924 6.358 94.6391 5.37767 92.4064 4.54467ZM30.9401 10.965C28.9348 12.2512 27.005 13.6513 25.1601 15.1583L34.2664 26.3783C35.7397 25.245 37.2527 24.1117 38.8394 23.0917L30.9401 10.965ZM104.958 10.965L97.1381 23.1313C98.7247 24.1513 100.236 25.2469 101.671 26.418L110.851 15.2377C108.959 13.7172 106.992 12.2912 104.958 10.965ZM67.9661 19.805C61.3531 19.805 55.1991 21.0517 49.1527 23.6243C43.4147 26.0267 38.2033 29.5306 33.8131 33.9377C29.4166 38.3367 25.9362 43.564 23.5734 49.317C20.9271 55.2103 19.7541 61.4437 19.7541 68.0567C19.7541 74.596 20.9271 80.8293 23.5734 86.7963C25.9711 92.5073 29.4479 97.7021 33.8131 102.096C38.1916 106.499 43.3892 110.003 49.1131 112.41C55.0644 114.932 61.4625 116.231 67.9264 116.229C74.3685 116.239 80.7457 114.942 86.6717 112.415C92.3971 109.968 97.6135 106.47 102.051 102.102C106.414 97.7073 109.889 92.5125 112.285 86.802C114.87 80.8915 116.196 74.5076 116.178 68.0567C116.241 61.6071 114.928 55.2183 112.325 49.317C109.984 43.4237 106.431 38.3577 102.085 33.9377C97.6665 29.5492 92.4478 26.0482 86.7114 23.6243C80.7854 21.0977 74.4082 19.8003 67.9661 19.8107V19.805ZM116.104 19.958L105.825 30.124C107.151 31.484 108.432 32.8837 109.644 34.391L120.864 25.211C119.379 23.3711 117.789 21.6173 116.104 19.958ZM19.8277 19.9977C18.1768 21.6599 16.6166 23.3977 15.1471 25.211L26.4464 34.2777C27.5873 32.8497 28.8207 31.4764 30.1467 30.158L19.8277 19.9977ZM67.9321 23.7773C73.8359 23.7318 79.686 24.9007 85.1191 27.2113C90.4854 29.478 95.0924 32.6513 99.1384 36.7313C103.218 40.8113 106.392 45.5033 108.658 50.7507C111.01 56.2167 112.22 62.1061 112.211 68.0567C112.217 73.9663 111.021 79.8155 108.698 85.2493C106.431 90.5023 103.258 95.2227 99.1781 99.3027C95.1627 103.351 90.4021 106.583 85.1587 108.823C79.715 111.106 73.8691 112.275 67.9661 112.262C62.0664 112.259 56.2254 111.091 50.7791 108.823C45.4127 106.556 40.8057 103.383 36.6464 99.3027C32.6356 95.2673 29.4416 90.4955 27.2397 85.2493C24.9417 79.8102 23.7715 73.9613 23.8001 68.0567C23.8001 61.9763 24.8937 56.27 27.2397 50.7507C29.4271 45.5033 32.6797 40.7773 36.6464 36.737C40.6926 32.6923 45.4766 29.4606 50.7394 27.217C56.1738 24.9036 62.0259 23.7328 67.9321 23.7773ZM67.9321 27.6647C56.7876 27.6684 47.3035 31.6238 39.4797 39.5307C31.5067 47.3903 27.6137 56.9103 27.6137 68.0567C27.6137 79.0897 31.5067 88.6097 39.4797 96.39C47.2657 104.255 56.7857 108.256 67.9264 108.256C78.9651 108.256 88.4851 104.255 96.3787 96.3957C104.278 88.6097 108.131 79.0897 108.131 68.0567C108.131 56.9103 104.238 47.3903 96.3787 39.5307C88.4851 31.671 78.9991 27.6647 67.9321 27.6647ZM125.018 30.991L112.891 38.8903C113.951 40.4373 114.858 42.0637 115.691 43.724L128.571 37.111C127.504 35.0054 126.317 32.9621 125.018 30.991ZM10.9141 31.0307C9.6334 33.031 8.42073 35.071 7.32706 37.2243L20.2131 43.7977C21.1197 42.0637 22.0604 40.4373 23.0804 38.8507L10.9141 31.0307ZM67.9321 31.6313C77.9054 31.6313 86.4791 35.1447 93.6587 42.3243C100.725 49.3907 104.165 57.8907 104.165 68.0567C104.165 78.03 100.725 86.6093 93.6587 93.67C86.5187 100.742 77.9054 104.255 67.9321 104.255C57.8794 104.255 49.2661 100.742 42.3187 93.6757C35.1731 86.6093 31.6201 77.996 31.6201 68.0567C31.6201 57.9303 35.1731 49.3907 42.3131 42.33C49.3057 35.19 57.8851 31.6313 67.9321 31.6313ZM67.9321 35.7113C59.0524 35.7113 51.3457 38.811 45.0387 45.118C38.6864 51.4703 35.6264 59.0637 35.6264 68.017C35.6264 76.8967 38.6864 84.49 45.0331 90.8423C51.3797 97.1947 59.0524 100.362 67.9264 100.362C76.8797 100.362 84.4051 97.189 90.7517 90.8763C97.0984 84.5372 100.272 76.9307 100.272 68.0567C100.272 59.1033 97.0984 51.4722 90.7517 45.1633C84.4051 38.8167 76.9251 35.7113 67.9321 35.7113ZM68.0001 39.7233C68.4874 39.7233 68.9766 39.7347 69.4677 39.7573C77.1744 40.137 83.6741 43.3103 88.9271 49.0903C94.1801 54.8307 96.6337 61.6307 96.1804 69.4167C95.9141 77.2763 92.7407 83.81 86.9607 89.063C81.0674 94.316 74.2674 96.7697 66.4814 96.3163C58.6312 95.8706 52.0824 92.7992 46.8351 87.1023C41.6614 81.209 39.2417 74.443 39.5817 66.5437C40.0351 58.7633 43.0951 52.224 48.9884 47.0107C54.3377 42.0863 60.7184 39.7233 68.0001 39.7233ZM131.467 43.5767L117.946 48.824C118.618 50.5316 119.197 52.2958 119.68 54.1167L133.66 50.4107C133.059 48.0703 132.3 45.8037 131.472 43.571L131.467 43.5767ZM4.45406 43.69C3.62106 45.8773 2.8674 48.11 2.26106 50.4107L16.2407 54.1507C16.7337 52.3373 17.3401 50.5637 17.9804 48.824L4.45406 43.69ZM68.0454 44.4437C67.1387 44.4437 66.2661 44.5173 65.3991 44.591V91.409H65.4387C66.2321 91.596 67.1387 91.596 68.0454 91.596C68.9521 91.596 69.8587 91.596 70.6521 91.409H70.6861V44.591C69.8191 44.5173 68.9521 44.4437 68.0454 44.4437ZM60.0724 45.764C58.2139 46.4142 56.448 47.3038 54.8194 48.4103V87.55C54.8591 87.5897 54.8931 87.5897 54.9327 87.6293C56.5194 88.689 58.2931 89.5957 60.0724 90.1963V45.764ZM76.0184 45.8037V90.236C77.8749 89.5853 79.6389 88.6957 81.2657 87.5897V48.4897C79.6111 47.3526 77.862 46.4572 76.0184 45.8037ZM49.5664 53.2837C46.184 57.43 44.3649 62.6324 44.4267 67.983C44.4267 72.097 45.3334 75.8767 47.2261 79.1293C47.8912 80.3962 48.6748 81.5972 49.5664 82.7163V53.2837ZM86.5187 53.3573V82.6767C87.4254 81.583 88.1847 80.376 88.8647 79.203C90.6781 75.8767 91.5451 72.097 91.5451 68.0567C91.5451 62.4637 89.9187 57.5507 86.5187 53.3573ZM0.78773 57.3637C0.44773 59.7097 0.187064 62.05 0.0737305 64.43L14.5067 65.1837C14.6125 63.3023 14.8127 61.438 15.1074 59.5907L0.78773 57.3637ZM135.144 57.3637L120.864 59.6303C121.131 61.4833 121.357 63.3363 121.471 65.2233V65.263L135.904 64.5037V64.4697C135.79 62.05 135.524 59.7097 135.144 57.3637ZM121.505 70.7767C121.357 72.7033 121.165 74.596 120.864 76.4433L135.184 78.676C135.564 76.33 135.79 73.95 135.938 71.536L121.505 70.7767ZM14.5407 70.8503L0.10773 71.6097C0.221064 73.9897 0.487397 76.296 0.827397 78.5627L15.1074 76.296C14.7936 74.4979 14.6042 72.6745 14.5407 70.8503ZM119.731 81.8833C119.238 83.6967 118.637 85.476 117.991 87.21L131.518 92.3893C132.356 90.168 133.101 87.8881 133.75 85.5497L119.731 81.8833ZM16.2804 81.9627L2.30073 85.663C2.90517 87.9637 3.62295 90.2058 4.45406 92.3893L17.9804 87.2893C17.3465 85.5359 16.7795 83.7591 16.2804 81.9627ZM20.2471 92.3157L7.36673 98.9287C8.42451 101.006 9.59562 103.033 10.8801 105.009L23.0464 97.189C22.0566 95.6401 21.1235 94.0157 20.2471 92.3157ZM115.691 92.3497C114.858 94.0188 113.923 95.635 112.891 97.189L125.018 105.083C126.31 103.073 127.508 101.008 128.611 98.889L115.691 92.3497ZM26.3274 101.643L15.1074 110.789C16.6185 112.648 18.2052 114.412 19.8674 116.082L30.1467 105.882C28.7976 104.543 27.5244 103.13 26.3331 101.649L26.3274 101.643ZM109.531 101.722C108.39 103.203 107.155 104.588 105.825 105.876L116.025 116.116C117.718 114.416 119.317 112.64 120.825 110.789L109.531 101.722ZM34.3004 109.656L25.1601 120.876C27.0112 122.387 28.9378 123.785 30.9401 125.069L38.8734 112.982C37.2867 111.922 35.7794 110.829 34.3004 109.656ZM101.632 109.656C100.225 110.828 98.7494 111.914 97.2117 112.908L105.032 125.069C107.038 123.747 108.964 122.349 110.812 120.876L101.632 109.656ZM43.6674 115.742L37.0941 128.622C39.2077 129.682 41.4007 130.662 43.6277 131.535L48.7277 118.008C47.005 117.336 45.3162 116.579 43.6674 115.742ZM92.3327 115.742C90.6724 116.569 88.9667 117.328 87.2327 117.969L92.3327 131.535C94.5994 130.662 96.7527 129.682 98.9061 128.622L92.3327 115.742ZM54.1734 119.742L50.3937 133.722C52.6604 134.326 54.9648 134.818 57.3071 135.195L59.6134 120.915C57.7801 120.624 55.964 120.232 54.1734 119.742ZM81.8664 119.742C80.0531 120.235 78.2001 120.615 76.3527 120.915L78.6194 135.195C80.9575 134.816 83.276 134.325 85.5667 133.722L81.8664 119.742ZM65.2064 121.482L64.3734 135.915C66.7458 136.028 69.1391 136.028 71.5531 135.915L70.7937 121.482C68.9124 121.595 67.05 121.595 65.2064 121.482Z" fill="#EED49F"/>

  </symbol>
  <symbol id="icon5" viewBox="0 0 159 155">
    <path d="M81.4937 32.45L76.1837 30.975L75.7412 24.3375L69.8412 23.6L68.5875 30.68L63.425 31.9337L60.1062 25.075L52.3625 27.435L55.2387 34.515L52.51 37.9812L45.8725 35.1787L42.185 39.6037L51.035 50.9612M85.1075 27.8775C85.1075 27.8775 77.7325 40.71 72.0537 44.6187C66.4487 48.5275 61.5812 53.0262 43.2912 50.8137C24.8537 48.6012 14.5287 51.1087 12.3162 53.6162C10.1037 56.1237 10.4725 61.5075 16.5937 64.7525C22.6412 67.9975 30.9012 70.6525 30.9012 70.6525" stroke="#A6DA95" stroke-linecap="round" stroke-linejoin="round"/>
    <path d="M87.4674 78.9125L91.4499 75.0775L97.2024 78.175L100.89 73.3812L95.7274 68.5875L97.3499 63.425L104.725 64.1625L106.937 56.1975L99.4886 54.9437L98.0137 50.8137L103.914 46.4625L102.217 41.005L88.0574 42.6275M89.3111 84.4437C89.3111 84.4437 82.5261 71.1687 82.2311 64.31C82.0099 57.3775 80.7562 50.8137 92.2612 35.99C103.692 21.24 107.011 10.915 106.2 7.59623C105.315 4.35123 100.595 1.84373 94.6949 5.38373C88.7949 9.07123 83.2637 16.0775 83.2637 16.0775" stroke="#EED49F" stroke-linecap="round" stroke-linejoin="round"/>
    <path d="M45.135 62.0237L46.4626 67.4812L40.9313 71.1687L43.0701 76.7737L49.7075 74.5612L53.3213 78.5437L49.0438 84.7387L54.7225 90.6387L59.4426 84.5912L63.7201 85.4762L64.4575 92.8512L69.915 94.0312L75.5938 80.6087M39.4563 60.9175C39.4563 60.9175 54.1325 61.5075 60.1063 64.6787C66.0063 67.9237 72.3488 70.1362 79.1338 87.6887C85.9925 105.167 93.0725 113.28 96.2438 114.239C99.4888 115.05 103.914 112.026 103.84 105.02C103.84 98.0137 101.259 89.5325 101.259 89.5325" stroke="#8AADF4" stroke-linecap="round" stroke-linejoin="round"/>
  </symbol>
   <symbol id="icon6" viewBox="0 0 159 155">
   <path d="M76.275 69H89.885V72H76.275V69ZM123.432 69H137.042V72H123.432V69ZM101.465 62.04H104.688V87H101.465V62.04ZM94.302 69H97.525V87H94.302V69ZM94.302 65.28H97.525V62.04H94.302V65.28ZM75.917 84H90.243V87H75.917V84ZM75.917 84L86.066 72H89.885L79.735 84H75.917ZM123.074 84L133.223 72H137.042L126.893 84H123.074ZM108.628 62.04H111.851V87H108.628V62.04ZM123.074 84H137.4V87H123.074V84ZM115.791 69H119.014V87H115.791V69ZM115.791 65.28H119.014V62.04H115.791V65.28Z" fill="black"/>
    <path d="M43.385 86.633V102H46.369V83.598L54.306 97.415C55.2009 96.975 56.064 96.4731 56.889 95.913L48.201 80.788L57.769 84.288C58.2 83.395 58.543 82.451 58.785 81.468L53.408 79.5H68.754V76.5H50.446L64.193 68.523C63.753 67.62 63.253 66.753 62.698 65.926L47.739 74.606L51.192 65.071C50.2974 64.6284 49.3585 64.2815 48.391 64.036L46.369 69.619V54H43.385V72.402L35.448 58.585C34.55 59.026 33.688 59.529 32.865 60.087L41.516 75.15L32.006 71.67C31.571 72.561 31.226 73.504 30.98 74.487L36.482 76.5H21V79.5H39.308L25.56 87.477C26 88.38 26.5 89.247 27.055 90.074L42.129 81.326L38.639 90.967C39.527 91.4 40.466 91.743 41.446 91.985L43.385 86.633Z" fill="url(#paint0_linear_12_62)"/>
  </symbol>
</svg>
