
<svg xmlns="http://www.w3.org/2000/svg" style="display: none;">
  <!-- SVG Symbol Definitions -->
  <symbol id="icon1" viewBox="0 0 118 118">
    <path d="M81.4937 32.45L76.1837 30.975L75.7412 24.3375L69.8412 23.6L68.5875 30.68L63.425 31.9337L60.1062 25.075L52.3625 27.435L55.2387 34.515L52.51 37.9812L45.8725 35.1787L42.185 39.6037L51.035 50.9612M85.1075 27.8775C85.1075 27.8775 77.7325 40.71 72.0537 44.6187C66.4487 48.5275 61.5812 53.0262 43.2912 50.8137C24.8537 48.6012 14.5287 51.1087 12.3162 53.6162C10.1037 56.1237 10.4725 61.5075 16.5937 64.7525C22.6412 67.9975 30.9012 70.6525 30.9012 70.6525" stroke="#A6DA95" stroke-linecap="round" stroke-linejoin="round"/>
  </symbol>
  <symbol id="icon2" viewBox="0 0 155 155">
    <path d="M48.0824 45.2083H106.795C110.147 45.2083 112.084 48.7604 110.147 51.3825L82.7055 87.336C80.6905 89.9581 82.6667 93.6329 86.0121 93.6329H110.709C111.348 93.6425 111.981 93.5013 112.555 93.2208C113.13 92.9403 113.63 92.5283 114.015 92.0183L141.295 55.6966C141.805 55.0236 142.08 54.2027 142.08 53.3587C142.08 52.5148 141.805 51.6939 141.295 51.0208L116.96 18.6194C116.576 18.1048 116.077 17.6869 115.503 17.3988C114.929 17.1107 114.296 16.9603 113.654 16.9596H41.3463C40.7068 16.954 40.0747 17.097 39.4998 17.3771C38.9249 17.6573 38.4229 18.0671 38.0332 18.5741L13.7047 51.0208C13.1955 51.6939 12.9199 52.5148 12.9199 53.3587C12.9199 54.2027 13.1955 55.0236 13.7047 55.6966L74.1934 136.406C74.5823 136.914 75.0829 137.325 75.6563 137.608C76.2297 137.891 76.8606 138.039 77.5001 138.039C78.1395 138.039 78.7704 137.891 79.3438 137.608C79.9173 137.325 80.4178 136.914 80.8067 136.406L93.1551 119.899C93.6658 119.225 93.9422 118.403 93.9422 117.558C93.9422 116.712 93.6658 115.89 93.1551 115.217L44.8209 51.3825C42.8382 48.7604 44.8209 45.2083 48.1211 45.2083H48.0824Z" fill="#5EBC53"/>
  </symbol>
 
  <symbol id="icon3" viewBox="0 0 159 155">
    <path d="M77 0C34.8233 0 0.641711 34.4703 0.654545 77C0.654545 119.53 34.8361 154 77 154C119.164 154 153.346 119.517 153.346 77C153.346 34.4703 119.164 0 77 0ZM86.0347 45.9433H93.2663V71.0582L94.986 69.8711C99.1549 66.7802 104.25 65.1965 109.436 65.3794L109.622 65.3987C115.551 65.7235 121.109 68.3878 125.076 72.8066C129.042 77.2254 131.093 83.0375 130.778 88.9671C129.392 111.682 98.2456 118.387 88.2677 97.9183C85.855 92.939 86.0347 94.8127 85.8615 69.0048L86.0347 45.9433ZM55.671 46.7968C60.6426 46.8195 65.4599 48.5248 69.3385 51.6349C73.9127 55.3133 76.8649 60.6362 77.5633 66.4642C78.2617 72.2921 76.6507 78.1619 73.0752 82.8168C69.4997 87.4718 64.2439 90.5419 58.4329 91.37C52.622 92.1981 46.7178 90.7183 41.9843 87.2474C41.471 86.9073 40.7651 86.5672 40.2518 86.2207C40.085 86.2207 40.0785 91.7198 40.0785 98.6049V110.989H32.8534V90.5199C32.8534 65.7452 32.8598 64.3656 35.2725 59.5403C36.7915 56.4872 38.9677 53.8084 41.6447 51.696C44.3218 49.5837 47.4333 48.0903 50.7559 47.3229C52.3857 46.9593 54.0241 46.7839 55.671 46.7968ZM55.2283 53.8743C51.4476 53.8515 47.7999 55.2687 45.0262 57.838C42.2526 60.4073 40.561 63.9361 40.295 67.7075C40.029 71.4789 41.2086 75.2102 43.5942 78.1434C45.9798 81.0765 49.3925 82.9916 53.139 83.4996C56.8855 84.0076 60.685 83.0704 63.7655 80.8785C66.846 78.6865 68.9766 75.404 69.7246 71.698C70.4725 67.9919 69.7816 64.14 67.7923 60.9249C65.803 57.7098 62.6644 55.3724 59.0141 54.3877C57.7813 54.0458 56.5077 53.8731 55.2283 53.8743ZM109.257 72.4634C105.501 72.2532 101.799 73.4373 98.8627 75.7886C95.9261 78.1398 93.9611 81.4926 93.3447 85.2036C92.7284 88.9146 93.504 92.7226 95.5228 95.8969C97.5416 99.0712 100.661 101.388 104.284 102.404C108.163 103.402 112.279 102.836 115.744 100.827C119.208 98.8173 121.744 95.5261 122.804 91.6634C123.864 87.8007 123.362 83.6762 121.407 80.1802C119.452 76.6841 116.201 74.0969 112.356 72.9767C111.358 72.6371 110.311 72.4636 109.257 72.4634Z" fill="#BEDDF3"/>

  </symbol>
  <symbol id="icon4" viewBox="0 0 159 155">
    <path d="M67.9774 0C66.7874 0 65.5974 0.0283333 64.4074 0.085L65.1667 14.518C67.0537 14.4047 68.9067 14.4443 70.7597 14.518L71.5134 0.085C70.3356 0.0283705 69.1566 2.89997e-05 67.9774 0ZM57.2674 0.838667C54.9271 1.21833 52.5867 1.71133 50.3541 2.312L54.1337 16.2917C55.9471 15.8043 57.7604 15.4247 59.6474 15.1243L57.2674 0.838667ZM78.5797 0.838667L76.3867 15.1187C78.2794 15.4247 80.1267 15.7987 81.9061 16.2917L85.5667 2.312C83.2629 1.70823 80.9312 1.21655 78.5797 0.838667ZM43.6277 4.505C41.4007 5.37767 39.2474 6.31833 37.1337 7.41767L43.7411 20.298C45.4146 19.4669 47.1033 18.7113 48.8071 18.0313L43.6277 4.505ZM92.4064 4.54467L87.1931 18.0313C88.9762 18.7076 90.7026 19.4763 92.3724 20.3377L98.8664 7.41767C96.7924 6.358 94.6391 5.37767 92.4064 4.54467ZM30.9401 10.965C28.9348 12.2512 27.005 13.6513 25.1601 15.1583L34.2664 26.3783C35.7397 25.245 37.2527 24.1117 38.8394 23.0917L30.9401 10.965ZM104.958 10.965L97.1381 23.1313C98.7247 24.1513 100.236 25.2469 101.671 26.418L110.851 15.2377C108.959 13.7172 106.992 12.2912 104.958 10.965ZM67.9661 19.805C61.3531 19.805 55.1991 21.0517 49.1527 23.6243C43.4147 26.0267 38.2033 29.5306 33.8131 33.9377C29.4166 38.3367 25.9362 43.564 23.5734 49.317C20.9271 55.2103 19.7541 61.4437 19.7541 68.0567C19.7541 74.596 20.9271 80.8293 23.5734 86.7963C25.9711 92.5073 29.4479 97.7021 33.8131 102.096C38.1916 106.499 43.3892 110.003 49.1131 112.41C55.0644 114.932 61.4625 116.231 67.9264 116.229C74.3685 116.239 80.7457 114.942 86.6717 112.415C92.3971 109.968 97.6135 106.47 102.051 102.102C106.414 97.7073 109.889 92.5125 112.285 86.802C114.87 80.8915 116.196 74.5076 116.178 68.0567C116.241 61.6071 114.928 55.2183 112.325 49.317C109.984 43.4237 106.431 38.3577 102.085 33.9377C97.6665 29.5492 92.4478 26.0482 86.7114 23.6243C80.7854 21.0977 74.4082 19.8003 67.9661 19.8107V19.805ZM116.104 19.958L105.825 30.124C107.151 31.484 108.432 32.8837 109.644 34.391L120.864 25.211C119.379 23.3711 117.789 21.6173 116.104 19.958ZM19.8277 19.9977C18.1768 21.6599 16.6166 23.3977 15.1471 25.211L26.4464 34.2777C27.5873 32.8497 28.8207 31.4764 30.1467 30.158L19.8277 19.9977ZM67.9321 23.7773C73.8359 23.7318 79.686 24.9007 85.1191 27.2113C90.4854 29.478 95.0924 32.6513 99.1384 36.7313C103.218 40.8113 106.392 45.5033 108.658 50.7507C111.01 56.2167 112.22 62.1061 112.211 68.0567C112.217 73.9663 111.021 79.8155 108.698 85.2493C106.431 90.5023 103.258 95.2227 99.1781 99.3027C95.1627 103.351 90.4021 106.583 85.1587 108.823C79.715 111.106 73.8691 112.275 67.9661 112.262C62.0664 112.259 56.2254 111.091 50.7791 108.823C45.4127 106.556 40.8057 103.383 36.6464 99.3027C32.6356 95.2673 29.4416 90.4955 27.2397 85.2493C24.9417 79.8102 23.7715 73.9613 23.8001 68.0567C23.8001 61.9763 24.8937 56.27 27.2397 50.7507C29.4271 45.5033 32.6797 40.7773 36.6464 36.737C40.6926 32.6923 45.4766 29.4606 50.7394 27.217C56.1738 24.9036 62.0259 23.7328 67.9321 23.7773ZM67.9321 27.6647C56.7876 27.6684 47.3035 31.6238 39.4797 39.5307C31.5067 47.3903 27.6137 56.9103 27.6137 68.0567C27.6137 79.0897 31.5067 88.6097 39.4797 96.39C47.2657 104.255 56.7857 108.256 67.9264 108.256C78.9651 108.256 88.4851 104.255 96.3787 96.3957C104.278 88.6097 108.131 79.0897 108.131 68.0567C108.131 56.9103 104.238 47.3903 96.3787 39.5307C88.4851 31.671 78.9991 27.6647 67.9321 27.6647ZM125.018 30.991L112.891 38.8903C113.951 40.4373 114.858 42.0637 115.691 43.724L128.571 37.111C127.504 35.0054 126.317 32.9621 125.018 30.991ZM10.9141 31.0307C9.6334 33.031 8.42073 35.071 7.32706 37.2243L20.2131 43.7977C21.1197 42.0637 22.0604 40.4373 23.0804 38.8507L10.9141 31.0307ZM67.9321 31.6313C77.9054 31.6313 86.4791 35.1447 93.6587 42.3243C100.725 49.3907 104.165 57.8907 104.165 68.0567C104.165 78.03 100.725 86.6093 93.6587 93.67C86.5187 100.742 77.9054 104.255 67.9321 104.255C57.8794 104.255 49.2661 100.742 42.3187 93.6757C35.1731 86.6093 31.6201 77.996 31.6201 68.0567C31.6201 57.9303 35.1731 49.3907 42.3131 42.33C49.3057 35.19 57.8851 31.6313 67.9321 31.6313ZM67.9321 35.7113C59.0524 35.7113 51.3457 38.811 45.0387 45.118C38.6864 51.4703 35.6264 59.0637 35.6264 68.017C35.6264 76.8967 38.6864 84.49 45.0331 90.8423C51.3797 97.1947 59.0524 100.362 67.9264 100.362C76.8797 100.362 84.4051 97.189 90.7517 90.8763C97.0984 84.5372 100.272 76.9307 100.272 68.0567C100.272 59.1033 97.0984 51.4722 90.7517 45.1633C84.4051 38.8167 76.9251 35.7113 67.9321 35.7113ZM68.0001 39.7233C68.4874 39.7233 68.9766 39.7347 69.4677 39.7573C77.1744 40.137 83.6741 43.3103 88.9271 49.0903C94.1801 54.8307 96.6337 61.6307 96.1804 69.4167C95.9141 77.2763 92.7407 83.81 86.9607 89.063C81.0674 94.316 74.2674 96.7697 66.4814 96.3163C58.6312 95.8706 52.0824 92.7992 46.8351 87.1023C41.6614 81.209 39.2417 74.443 39.5817 66.5437C40.0351 58.7633 43.0951 52.224 48.9884 47.0107C54.3377 42.0863 60.7184 39.7233 68.0001 39.7233ZM131.467 43.5767L117.946 48.824C118.618 50.5316 119.197 52.2958 119.68 54.1167L133.66 50.4107C133.059 48.0703 132.3 45.8037 131.472 43.571L131.467 43.5767ZM4.45406 43.69C3.62106 45.8773 2.8674 48.11 2.26106 50.4107L16.2407 54.1507C16.7337 52.3373 17.3401 50.5637 17.9804 48.824L4.45406 43.69ZM68.0454 44.4437C67.1387 44.4437 66.2661 44.5173 65.3991 44.591V91.409H65.4387C66.2321 91.596 67.1387 91.596 68.0454 91.596C68.9521 91.596 69.8587 91.596 70.6521 91.409H70.6861V44.591C69.8191 44.5173 68.9521 44.4437 68.0454 44.4437ZM60.0724 45.764C58.2139 46.4142 56.448 47.3038 54.8194 48.4103V87.55C54.8591 87.5897 54.8931 87.5897 54.9327 87.6293C56.5194 88.689 58.2931 89.5957 60.0724 90.1963V45.764ZM76.0184 45.8037V90.236C77.8749 89.5853 79.6389 88.6957 81.2657 87.5897V48.4897C79.6111 47.3526 77.862 46.4572 76.0184 45.8037ZM49.5664 53.2837C46.184 57.43 44.3649 62.6324 44.4267 67.983C44.4267 72.097 45.3334 75.8767 47.2261 79.1293C47.8912 80.3962 48.6748 81.5972 49.5664 82.7163V53.2837ZM86.5187 53.3573V82.6767C87.4254 81.583 88.1847 80.376 88.8647 79.203C90.6781 75.8767 91.5451 72.097 91.5451 68.0567C91.5451 62.4637 89.9187 57.5507 86.5187 53.3573ZM0.78773 57.3637C0.44773 59.7097 0.187064 62.05 0.0737305 64.43L14.5067 65.1837C14.6125 63.3023 14.8127 61.438 15.1074 59.5907L0.78773 57.3637ZM135.144 57.3637L120.864 59.6303C121.131 61.4833 121.357 63.3363 121.471 65.2233V65.263L135.904 64.5037V64.4697C135.79 62.05 135.524 59.7097 135.144 57.3637ZM121.505 70.7767C121.357 72.7033 121.165 74.596 120.864 76.4433L135.184 78.676C135.564 76.33 135.79 73.95 135.938 71.536L121.505 70.7767ZM14.5407 70.8503L0.10773 71.6097C0.221064 73.9897 0.487397 76.296 0.827397 78.5627L15.1074 76.296C14.7936 74.4979 14.6042 72.6745 14.5407 70.8503ZM119.731 81.8833C119.238 83.6967 118.637 85.476 117.991 87.21L131.518 92.3893C132.356 90.168 133.101 87.8881 133.75 85.5497L119.731 81.8833ZM16.2804 81.9627L2.30073 85.663C2.90517 87.9637 3.62295 90.2058 4.45406 92.3893L17.9804 87.2893C17.3465 85.5359 16.7795 83.7591 16.2804 81.9627ZM20.2471 92.3157L7.36673 98.9287C8.42451 101.006 9.59562 103.033 10.8801 105.009L23.0464 97.189C22.0566 95.6401 21.1235 94.0157 20.2471 92.3157ZM115.691 92.3497C114.858 94.0188 113.923 95.635 112.891 97.189L125.018 105.083C126.31 103.073 127.508 101.008 128.611 98.889L115.691 92.3497ZM26.3274 101.643L15.1074 110.789C16.6185 112.648 18.2052 114.412 19.8674 116.082L30.1467 105.882C28.7976 104.543 27.5244 103.13 26.3331 101.649L26.3274 101.643ZM109.531 101.722C108.39 103.203 107.155 104.588 105.825 105.876L116.025 116.116C117.718 114.416 119.317 112.64 120.825 110.789L109.531 101.722ZM34.3004 109.656L25.1601 120.876C27.0112 122.387 28.9378 123.785 30.9401 125.069L38.8734 112.982C37.2867 111.922 35.7794 110.829 34.3004 109.656ZM101.632 109.656C100.225 110.828 98.7494 111.914 97.2117 112.908L105.032 125.069C107.038 123.747 108.964 122.349 110.812 120.876L101.632 109.656ZM43.6674 115.742L37.0941 128.622C39.2077 129.682 41.4007 130.662 43.6277 131.535L48.7277 118.008C47.005 117.336 45.3162 116.579 43.6674 115.742ZM92.3327 115.742C90.6724 116.569 88.9667 117.328 87.2327 117.969L92.3327 131.535C94.5994 130.662 96.7527 129.682 98.9061 128.622L92.3327 115.742ZM54.1734 119.742L50.3937 133.722C52.6604 134.326 54.9648 134.818 57.3071 135.195L59.6134 120.915C57.7801 120.624 55.964 120.232 54.1734 119.742ZM81.8664 119.742C80.0531 120.235 78.2001 120.615 76.3527 120.915L78.6194 135.195C80.9575 134.816 83.276 134.325 85.5667 133.722L81.8664 119.742ZM65.2064 121.482L64.3734 135.915C66.7458 136.028 69.1391 136.028 71.5531 135.915L70.7937 121.482C68.9124 121.595 67.05 121.595 65.2064 121.482Z" fill="#EED49F"/>

  </symbol>
  <symbol id="icon5" viewBox="0 0 159 155">
    <path d="M231.006 512.213C219.199 503.39 208.869 490.282 200.933 473.909L197.564 466.963L190.766 470.643C176.358 478.445 162.496 483.322 150.216 484.962L147.231 429.457L93.499 443.762C91.1789 431.142 91.6518 415.876 94.9177 399.103L96.4398 391.345L88.578 390.37C70.224 388.094 54.5005 382.611 42.7078 374.41L65.1848 331.303L21.0288 308.796C25.7429 294.846 35.0381 280.985 48.1313 268.379L53.7025 263.015L48.1017 257.695C36.2351 246.405 27.2946 234.73 21.945 223.543L73.815 203.549L43.5945 156.866C54.53 150.925 68.6133 146.729 84.8097 144.571L92.4794 143.566L91.1346 135.97C87.9574 118.074 88.5928 101.42 92.967 87.381L141.852 95.1097L149.595 46.2249C164.196 46.417 180.333 51.0424 196.352 59.6283L203.18 63.2932L206.519 56.3033C213.598 41.4812 221.947 29.3486 230.947 20.7775L266 63.9286L301.053 20.7775C310.053 29.3486 318.417 41.4812 325.481 56.3033L328.82 63.2932L335.648 59.6431C351.682 51.0572 367.834 46.4318 382.405 46.2544L390.133 95.1393L439.048 87.381C443.422 101.435 444.072 118.089 440.88 135.97L439.521 143.581L447.176 144.601C463.357 146.743 477.44 150.955 488.376 156.896L458.141 203.534L510.025 223.558C504.691 234.745 495.75 246.419 483.869 257.71L478.268 263.03L483.839 268.394C496.962 281.014 506.242 294.891 510.956 308.826L466.86 331.288L489.337 375.385C477.337 383.868 461.687 389.631 443.614 392.143L435.959 393.207L437.378 400.803C440.348 416.896 440.718 431.585 438.457 443.791L384.754 429.457L381.74 484.977C369.474 483.352 355.612 478.475 341.219 470.672L334.436 466.993L331.067 473.938C323.101 490.297 312.786 503.405 300.979 512.227L266 477.219L231.006 512.213Z" fill="white"/> <path d="M104.804 157.797C96.9719 135.793 94.4892 113.907 98.4201 95.7304L133.414 101.272L148 103.577L150.32 88.977L155.861 53.9832C174.496 55.86 194.476 64.9631 212.933 79.1941C214.677 74.214 216.539 69.3964 218.578 64.904C195.658 48.1312 170.949 38.8508 148.679 38.8508C146.867 38.8508 145.064 38.9148 143.271 39.0429L135.719 86.6717L88.0756 79.1202C79.209 101.095 79.7262 129.586 89.3318 158.817C94.2872 158.265 99.4447 157.925 104.804 157.797ZM319.097 79.1941C337.539 64.9779 357.519 55.8748 376.139 53.998L381.695 88.9918L384.001 103.592L398.586 101.272L433.595 95.7157C437.526 113.892 435.043 135.763 427.211 157.782C432.551 157.91 437.703 158.255 442.668 158.817C452.289 129.586 452.791 101.095 443.925 79.1054L396.266 86.6717L388.715 39.0281C386.919 38.9143 385.12 38.8551 383.321 38.8508C361.051 38.8508 336.342 48.1312 313.422 64.8892C315.481 69.4211 317.373 74.1894 319.097 79.1941ZM108.883 399H109.4C110.39 399 111.72 390.074 113.242 385.005C111.794 385.065 110.331 385.685 108.898 385.685C86.79 385.685 67.1355 381.208 52.2986 372.533L68.3916 341.086L75.1007 327.978L61.9337 321.298L30.3684 305.22C37.8755 288.211 52.7568 271.97 72.0122 258.774C67.8798 255.655 63.886 252.356 60.0422 248.887C35.1121 266.872 17.9846 289.6 12.2361 312.58L55.2099 334.495L33.3092 376.508C51.3529 391.626 78.3666 399 108.883 399ZM519.794 312.609C514.03 289.63 496.918 266.901 472.002 248.902C468.308 252.271 464.274 255.567 460.032 258.788C479.303 271.985 494.169 288.226 501.661 305.265L470.096 321.343L456.929 328.037L463.638 341.219L479.731 372.799C464.894 381.474 445.269 386.158 423.162 386.158C421.699 386.158 420.221 386.01 418.743 385.966C420.28 391.069 421.561 396.049 422.585 400.906L423.162 400.936C453.693 400.936 480.677 392.616 498.706 377.484L476.805 334.51L519.794 312.609ZM332.81 448.299C326.205 470.717 315.358 489.854 301.496 502.252L276.448 477.219L266 466.771L255.552 477.219L230.504 502.252C216.642 489.854 205.781 470.687 199.175 448.284C194.801 451.328 190.412 454.151 186.082 456.604C195.481 485.864 211.81 509.198 231.893 521.759L266 487.667L300.107 521.774C320.175 509.198 336.52 485.893 345.933 456.633C341.439 454.048 337.061 451.267 332.81 448.299Z" fill="#9333EA"/>
  </symbol>
   <symbol id="icon6" viewBox="0 0 159 155">
   <path d="M76.275 69H89.885V72H76.275V69ZM123.432 69H137.042V72H123.432V69ZM101.465 62.04H104.688V87H101.465V62.04ZM94.302 69H97.525V87H94.302V69ZM94.302 65.28H97.525V62.04H94.302V65.28ZM75.917 84H90.243V87H75.917V84ZM75.917 84L86.066 72H89.885L79.735 84H75.917ZM123.074 84L133.223 72H137.042L126.893 84H123.074ZM108.628 62.04H111.851V87H108.628V62.04ZM123.074 84H137.4V87H123.074V84ZM115.791 69H119.014V87H115.791V69ZM115.791 65.28H119.014V62.04H115.791V65.28Z" fill="black"/>
   <path d="M43.385 86.633V102H46.369V83.598L54.306 97.415C55.2009 96.975 56.064 96.4731 56.889 95.913L48.201 80.788L57.769 84.288C58.2 83.395 58.543 82.451 58.785 81.468L53.408 79.5H68.754V76.5H50.446L64.193 68.523C63.753 67.62 63.253 66.753 62.698 65.926L47.739 74.606L51.192 65.071C50.2974 64.6284 49.3585 64.2815 48.391 64.036L46.369 69.619V54H43.385V72.402L35.448 58.585C34.55 59.026 33.688 59.529 32.865 60.087L41.516 75.15L32.006 71.67C31.571 72.561 31.226 73.504 30.98 74.487L36.482 76.5H21V79.5H39.308L25.56 87.477C26 88.38 26.5 89.247 27.055 90.074L42.129 81.326L38.639 90.967C39.527 91.4 40.466 91.743 41.446 91.985L43.385 86.633Z" fill="url(#paint0_linear_12_62)"/>
  </symbol>
</svg>
