<svg width="159" height="155" viewBox="0 0 159 155" fill="none" xmlns="http://www.w3.org/2000/svg">
<g clip-path="url(#clip0_12_62)">
<path d="M76.275 69H89.885V72H76.275V69ZM123.432 69H137.042V72H123.432V69ZM101.465 62.04H104.688V87H101.465V62.04ZM94.302 69H97.525V87H94.302V69ZM94.302 65.28H97.525V62.04H94.302V65.28ZM75.917 84H90.243V87H75.917V84ZM75.917 84L86.066 72H89.885L79.735 84H75.917ZM123.074 84L133.223 72H137.042L126.893 84H123.074ZM108.628 62.04H111.851V87H108.628V62.04ZM123.074 84H137.4V87H123.074V84ZM115.791 69H119.014V87H115.791V69ZM115.791 65.28H119.014V62.04H115.791V65.28Z" fill="black"/>
<path d="M43.385 86.633V102H46.369V83.598L54.306 97.415C55.2009 96.975 56.064 96.4731 56.889 95.913L48.201 80.788L57.769 84.288C58.2 83.395 58.543 82.451 58.785 81.468L53.408 79.5H68.754V76.5H50.446L64.193 68.523C63.753 67.62 63.253 66.753 62.698 65.926L47.739 74.606L51.192 65.071C50.2974 64.6284 49.3585 64.2815 48.391 64.036L46.369 69.619V54H43.385V72.402L35.448 58.585C34.55 59.026 33.688 59.529 32.865 60.087L41.516 75.15L32.006 71.67C31.571 72.561 31.226 73.504 30.98 74.487L36.482 76.5H21V79.5H39.308L25.56 87.477C26 88.38 26.5 89.247 27.055 90.074L42.129 81.326L38.639 90.967C39.527 91.4 40.466 91.743 41.446 91.985L43.385 86.633Z" fill="url(#paint0_linear_12_62)"/>
</g>
<defs>
<linearGradient id="paint0_linear_12_62" x1="31.148" y1="59.1" x2="56.045" y2="99.246" gradientUnits="userSpaceOnUse">
<stop stop-color="#9D41FF"/>
<stop offset="0.469" stop-color="#2858FF"/>
<stop offset="0.771" stop-color="#29B8FF"/>
<stop offset="1" stop-color="#00F0FF"/>
</linearGradient>
<clipPath id="clip0_12_62">
<rect width="117" height="48" fill="white" transform="translate(21 54)"/>
</clipPath>
</defs>
</svg>
